<svg width="20" height="20" viewBox="0 0 20 20" fill="none" xmlns="http://www.w3.org/2000/svg">
<path d="M7.25 4.60938L6.64844 3.16406" stroke="#909090" stroke-width="1.5" stroke-linecap="round" stroke-linejoin="round"/>
<path d="M3.35938 8.5L1.91406 7.89844" stroke="#909090" stroke-width="1.5" stroke-linecap="round" stroke-linejoin="round"/>
<path d="M16.6406 8.5L18.0859 7.89844" stroke="#909090" stroke-width="1.5" stroke-linecap="round" stroke-linejoin="round"/>
<path d="M12.75 4.60938L13.3516 3.16406" stroke="#909090" stroke-width="1.5" stroke-linecap="round" stroke-linejoin="round"/>
<path d="M18.75 12.5H1.25" stroke="#909090" stroke-width="1.5" stroke-linecap="round" stroke-linejoin="round"/>
<path d="M16.25 15.625H3.75" stroke="#909090" stroke-width="1.5" stroke-linecap="round" stroke-linejoin="round"/>
<path d="M5.48438 12.5C5.29042 11.8036 5.26015 11.0718 5.39595 10.3618C5.53174 9.65174 5.82992 8.98274 6.26717 8.40706C6.70441 7.83139 7.26888 7.36465 7.91644 7.04333C8.564 6.72201 9.2771 6.55481 10 6.55481C10.7229 6.55481 11.436 6.72201 12.0836 7.04333C12.7311 7.36465 13.2956 7.83139 13.7328 8.40706C14.1701 8.98274 14.4683 9.65174 14.6041 10.3618C14.7398 11.0718 14.7096 11.8036 14.5156 12.5" stroke="#909090" stroke-width="1.5" stroke-linecap="round" stroke-linejoin="round"/>
</svg>
